<svg width="33" height="33" viewBox="0 0 33 33" fill="none" xmlns="http://www.w3.org/2000/svg">
<rect x="0.25" y="0.25" width="31.551" height="31.551" rx="15.7755" stroke="#001B51" stroke-width="0.5"/>
<path d="M14.3966 17.2564C14.3407 17.2564 13.1093 17.2564 12.5495 17.2564C12.251 17.2564 12.1577 17.1444 12.1577 16.8646C12.1577 16.1183 12.1577 15.3533 12.1577 14.607C12.1577 14.3085 12.2697 14.2152 12.5495 14.2152H14.3966C14.3966 14.1592 14.3966 13.0771 14.3966 12.5733C14.3966 11.827 14.5272 11.118 14.9004 10.465C15.2922 9.79334 15.8519 9.34555 16.5609 9.08435C17.0274 8.91643 17.4938 8.8418 17.9976 8.8418H19.826C20.0872 8.8418 20.1992 8.95374 20.1992 9.21495V11.3419C20.1992 11.6031 20.0872 11.7151 19.826 11.7151C19.3222 11.7151 18.8185 11.7151 18.3147 11.7337C17.811 11.7337 17.5498 11.9763 17.5498 12.4987C17.5311 13.0584 17.5498 13.5995 17.5498 14.1779H19.7141C20.0126 14.1779 20.1245 14.2898 20.1245 14.5884V16.8459C20.1245 17.1444 20.0312 17.2377 19.7141 17.2377C19.0424 17.2377 17.6057 17.2377 17.5498 17.2377V23.3201C17.5498 23.6373 17.4565 23.7493 17.1206 23.7493C16.337 23.7493 15.5721 23.7493 14.7884 23.7493C14.5086 23.7493 14.3966 23.6373 14.3966 23.3574C14.3966 21.3984 14.3966 17.3124 14.3966 17.2564Z" fill="#001B51"/>
</svg>




