<svg width="33" height="33" viewBox="0 0 33 33" fill="none" xmlns="http://www.w3.org/2000/svg">
<rect x="0.25" y="0.25" width="31.551" height="31.551" rx="15.7755" stroke="#001B51" stroke-width="0.5"/>
<mask id="path-2-inside-1_769_1772" fill="white">
<path d="M17.8402 15.5625L22.7775 9.94678H21.6075L17.3205 14.8229L13.8965 9.94678H9.94727L15.1251 17.3203L9.94727 23.2092H11.1173L15.6445 18.0599L19.2605 23.2092H23.2097L17.8399 15.5625H17.8402ZM16.2377 17.3852L15.7131 16.651L11.5389 10.8086H13.336L16.7046 15.5236L17.2292 16.2578L21.6081 22.3866H19.811L16.2377 17.3855V17.3852Z"/>
</mask>
<path d="M17.8402 15.5625L22.7775 9.94678H21.6075L17.3205 14.8229L13.8965 9.94678H9.94727L15.1251 17.3203L9.94727 23.2092H11.1173L15.6445 18.0599L19.2605 23.2092H23.2097L17.8399 15.5625H17.8402ZM16.2377 17.3852L15.7131 16.651L11.5389 10.8086H13.336L16.7046 15.5236L17.2292 16.2578L21.6081 22.3866H19.811L16.2377 17.3855V17.3852Z" fill="white"/>
<path d="M17.8402 15.5625V16.5625H18.2926L18.5913 16.2228L17.8402 15.5625ZM22.7775 9.94678L23.5285 10.6071L24.9882 8.94678H22.7775V9.94678ZM21.6075 9.94678V8.94678H21.1552L20.8565 9.28649L21.6075 9.94678ZM17.3205 14.8229L16.5021 15.3975L17.2324 16.4375L18.0715 15.4831L17.3205 14.8229ZM13.8965 9.94678L14.7149 9.3721L14.4162 8.94678H13.8965V9.94678ZM9.94727 9.94678V8.94678H8.02312L9.12889 10.5215L9.94727 9.94678ZM15.1251 17.3203L15.8761 17.9806L16.3957 17.3896L15.9434 16.7456L15.1251 17.3203ZM9.94727 23.2092L9.19627 22.5489L7.73647 24.2092H9.94727V23.2092ZM11.1173 23.2092V24.2092H11.5696L11.8683 23.8695L11.1173 23.2092ZM15.6445 18.0599L16.4629 17.4852L15.7326 16.4453L14.8935 17.3997L15.6445 18.0599ZM19.2605 23.2092L18.4422 23.7839L18.7408 24.2092H19.2605V23.2092ZM23.2097 23.2092V24.2092H25.1339L24.0281 22.6346L23.2097 23.2092ZM17.8399 15.5625V14.5625H15.9158L17.0216 16.1372L17.8399 15.5625ZM16.2377 17.3852H17.2377V17.0647L17.0514 16.8039L16.2377 17.3852ZM15.7131 16.651L14.8994 17.2323L14.8994 17.2324L15.7131 16.651ZM11.5389 10.8086V9.80862H9.5954L10.7252 11.39L11.5389 10.8086ZM13.336 10.8086L14.1497 10.2273L13.8505 9.80862H13.336V10.8086ZM16.7046 15.5236L15.891 16.1049L15.891 16.105L16.7046 15.5236ZM17.2292 16.2578L18.0429 15.6765L18.0429 15.6765L17.2292 16.2578ZM21.6081 22.3866V23.3866H23.5515L22.4217 21.8053L21.6081 22.3866ZM19.811 22.3866L18.9973 22.9679L19.2964 23.3866H19.811V22.3866ZM16.2377 17.3855H15.2377V17.7061L15.4241 17.9669L16.2377 17.3855ZM17.8402 15.5625L18.5913 16.2228L23.5285 10.6071L22.7775 9.94678L22.0265 9.2865L17.0892 14.9022L17.8402 15.5625ZM22.7775 9.94678V8.94678H21.6075V9.94678V10.9468H22.7775V9.94678ZM21.6075 9.94678L20.8565 9.28649L16.5695 14.1626L17.3205 14.8229L18.0715 15.4831L22.3585 10.6071L21.6075 9.94678ZM17.3205 14.8229L18.1389 14.2482L14.7149 9.3721L13.8965 9.94678L13.0781 10.5215L16.5021 15.3975L17.3205 14.8229ZM13.8965 9.94678V8.94678H9.94727V9.94678V10.9468H13.8965V9.94678ZM9.94727 9.94678L9.12889 10.5215L14.3067 17.8949L15.1251 17.3203L15.9434 16.7456L10.7656 9.3721L9.94727 9.94678ZM15.1251 17.3203L14.3741 16.66L9.19627 22.5489L9.94727 23.2092L10.6983 23.8695L15.8761 17.9806L15.1251 17.3203ZM9.94727 23.2092V24.2092H11.1173V23.2092V22.2092H9.94727V23.2092ZM11.1173 23.2092L11.8683 23.8695L16.3955 18.7202L15.6445 18.0599L14.8935 17.3997L10.3663 22.549L11.1173 23.2092ZM15.6445 18.0599L14.8261 18.6346L18.4422 23.7839L19.2605 23.2092L20.0789 22.6346L16.4629 17.4852L15.6445 18.0599ZM19.2605 23.2092V24.2092H23.2097V23.2092V22.2092H19.2605V23.2092ZM23.2097 23.2092L24.0281 22.6346L18.6583 14.9878L17.8399 15.5625L17.0216 16.1372L22.3914 23.7839L23.2097 23.2092ZM17.8399 15.5625V16.5625H17.8402V15.5625V14.5625H17.8399V15.5625ZM16.2377 17.3852L17.0514 16.8039L16.5267 16.0696L15.7131 16.651L14.8994 17.2324L15.4241 17.9666L16.2377 17.3852ZM15.7131 16.651L16.5268 16.0697L12.3525 10.2273L11.5389 10.8086L10.7252 11.39L14.8994 17.2323L15.7131 16.651ZM11.5389 10.8086V11.8086H13.336V10.8086V9.80862H11.5389V10.8086ZM13.336 10.8086L12.5223 11.3899L15.891 16.1049L16.7046 15.5236L17.5183 14.9423L14.1497 10.2273L13.336 10.8086ZM16.7046 15.5236L15.891 16.105L16.4156 16.8392L17.2292 16.2578L18.0429 15.6765L17.5183 14.9422L16.7046 15.5236ZM17.2292 16.2578L16.4156 16.8392L20.7944 22.9679L21.6081 22.3866L22.4217 21.8053L18.0429 15.6765L17.2292 16.2578ZM21.6081 22.3866V21.3866H19.811V22.3866V23.3866H21.6081V22.3866ZM19.811 22.3866L20.6246 21.8052L17.0514 16.8042L16.2377 17.3855L15.4241 17.9669L18.9973 22.9679L19.811 22.3866ZM16.2377 17.3855H17.2377V17.3852H16.2377H15.2377V17.3855H16.2377Z" fill="#001B51" mask="url(#path-2-inside-1_769_1772)"/>
</svg>
