<svg width="33" height="33" viewBox="0 0 33 33" fill="none" xmlns="http://www.w3.org/2000/svg">
<rect x="0.25" y="0.25" width="31.551" height="31.551" rx="15.7755" stroke="#001B51" stroke-width="0.5"/>
<path d="M16.5777 12.1576C14.1347 12.1576 12.1569 14.1376 12.1569 16.5784C12.1569 19.0214 14.1368 20.9992 16.5777 20.9992C19.0207 20.9992 20.9985 19.0193 20.9985 16.5784C20.9985 14.1354 19.0185 12.1576 16.5777 12.1576ZM16.5777 19.4479C14.9918 19.4479 13.7082 18.1635 13.7082 16.5784C13.7082 14.9933 14.9926 13.709 16.5777 13.709C18.1628 13.709 19.4471 14.9933 19.4471 16.5784C19.4478 18.1635 18.1635 19.4479 16.5777 19.4479Z" fill="#001B51"/>
<path d="M20.2238 7.79236C18.597 7.71647 14.5674 7.72016 12.9391 7.79236C11.5082 7.85941 10.246 8.20496 9.22852 9.22247C7.52798 10.923 7.74534 13.2144 7.74534 16.5749C7.74534 20.0142 7.55377 22.2526 9.22852 23.9273C10.9357 25.6337 13.2603 25.4105 16.5811 25.4105C19.9881 25.4105 21.164 25.4127 22.3687 24.9463C24.0066 24.3105 25.243 22.8465 25.3638 20.2169C25.4404 18.5893 25.436 14.5605 25.3638 12.9322C25.2179 9.82811 23.552 7.94561 20.2238 7.79236ZM22.799 22.8023C21.6842 23.917 20.1376 23.8176 16.5597 23.8176C12.8757 23.8176 11.3984 23.8721 10.3205 22.7912C9.07895 21.5556 9.30368 19.5714 9.30368 16.5631C9.30368 12.4923 8.88591 9.56066 12.9715 9.35141C13.9102 9.31825 14.1865 9.3072 16.5494 9.3072L16.5826 9.32931C20.509 9.32931 23.5896 8.91818 23.7745 13.0029C23.8165 13.935 23.8261 14.215 23.8261 16.5742C23.8253 20.2154 23.8946 21.7015 22.799 22.8023Z" fill="#001B51"/>
<path d="M20.9988 13.2627C21.6091 13.2627 22.104 12.7678 22.104 12.1575C22.104 11.5471 21.6091 11.0522 20.9988 11.0522C20.3884 11.0522 19.8936 11.5471 19.8936 12.1575C19.8936 12.7678 20.3884 13.2627 20.9988 13.2627Z" fill="#001B51"/>
</svg>
