<?xml version="1.0" encoding="UTF-8"?>
<svg id="Capa_1" xmlns="http://www.w3.org/2000/svg" version="1.1" viewBox="0 0 500 500">
  <!-- Generator: Adobe Illustrator 29.2.1, SVG Export Plug-In . SVG Version: 2.1.0 Build 116)  -->
  <defs>
    <style>
      .st0 {
        fill: #001b51;
      }
    </style>
  </defs>
  <path class="st0" d="M362.02,0h-224.04C61.9,0,0,61.9,0,137.98v224.04C0,438.1,61.9,500,137.98,500h224.04c76.09,0,137.98-61.9,137.98-137.98v-224.04c0-76.08-61.9-137.98-137.98-137.98ZM455.64,362.02c0,51.62-42,93.62-93.62,93.62h-224.04c-51.62,0-93.62-42-93.62-93.62v-224.04c0-51.62,42-93.62,93.62-93.62h224.04c51.62,0,93.62,42,93.62,93.62v224.04h0Z"/>
  <path class="st0" d="M250,121.17c-71.04,0-128.84,57.8-128.84,128.84s57.8,128.83,128.84,128.83,128.84-57.79,128.84-128.83-57.8-128.84-128.84-128.84ZM250,334.47c-46.58,0-84.47-37.89-84.47-84.47s37.89-84.47,84.47-84.47,84.47,37.89,84.47,84.47c0,46.58-37.9,84.47-84.47,84.47Z"/>
  <path class="st0" d="M384.24,83.55c-8.55,0-16.94,3.46-22.98,9.52-6.07,6.03-9.55,14.43-9.55,23.01s3.49,16.95,9.55,23.01c6.03,6.03,14.43,9.52,22.98,9.52s16.95-3.49,23.01-9.52c6.06-6.06,9.52-14.46,9.52-23.01s-3.46-16.98-9.52-23.01c-6.03-6.06-14.43-9.52-23.01-9.52Z"/>
</svg>