<svg width="33" height="33" viewBox="0 0 33 33" fill="none" xmlns="http://www.w3.org/2000/svg">
<path d="M10.1323 9.19092C10.3543 9.19092 10.5686 9.26835 10.7388 9.40771L10.8091 9.47119C10.9885 9.65058 11.0893 9.89427 11.0894 10.1479C11.0894 10.29 11.0578 10.4298 10.9976 10.5571L10.9282 10.6802C10.8494 10.7981 10.7452 10.8959 10.6245 10.9683L10.4985 11.0317C10.3675 11.086 10.2269 11.1108 10.0864 11.104L9.9458 11.0864C9.80659 11.0587 9.67609 11.0003 9.56299 10.9165L9.45557 10.8247C9.32188 10.6909 9.23075 10.52 9.19385 10.3345C9.16627 10.1955 9.17056 10.0528 9.20459 9.9165L9.24854 9.78174C9.30281 9.65079 9.38564 9.53443 9.48975 9.43994L9.60107 9.35303C9.75836 9.24793 9.94316 9.19096 10.1323 9.19092Z" stroke="#001B51" stroke-width="2.90909"/>
<path d="M10.5426 15.0229V23.9653H9.71545V15.0229H10.5426Z" stroke="#001B51" stroke-width="2.90909"/>
<rect x="0.25" y="0.25" width="31.551" height="31.551" rx="15.7755" stroke="#001B51" stroke-width="0.5"/>
<path d="M20.9385 14.8467C21.7987 14.8467 22.3166 15.0449 22.6416 15.2666C22.9688 15.4899 23.2182 15.8175 23.4062 16.2705C23.8148 17.2549 23.8281 18.5301 23.8281 19.7139V23.9658H22.9043V19.873C22.9043 19.6419 22.9764 18.5284 22.6816 17.543C22.5244 17.0175 22.2338 16.4015 21.6758 15.915C21.0923 15.4064 20.3455 15.1514 19.5 15.1514C19.4499 15.1514 19.4005 15.1544 19.3516 15.1562C19.354 15.1549 19.3569 15.1537 19.3594 15.1523C19.6556 14.9939 20.1308 14.8467 20.9385 14.8467ZM15.9639 15.0254V18.9551C15.9631 18.9634 15.9616 18.9715 15.9609 18.9795L15.9561 19.043V23.9658H15.1348V15.0254H15.9639Z" stroke="#001B51" stroke-width="2.90909"/>
</svg>
