<?xml version="1.0" encoding="UTF-8"?>
<svg id="Capa_1" xmlns="http://www.w3.org/2000/svg" version="1.1" viewBox="0 0 500 500">
  <!-- Generator: Adobe Illustrator 29.2.1, SVG Export Plug-In . SVG Version: 2.1.0 Build 116)  -->
  <defs>
    <style>
      .st0 {
        fill: #001b51;
      }
    </style>
  </defs>
  <path class="st0" d="M156.26,413.09h-68.36v-220.7h68.36v220.7ZM163.08,122.07c0-22.1-17.93-40.04-40.02-40.04s-40.05,17.94-40.05,40.04,17.88,40.04,40.05,40.04,40.02-17.94,40.02-40.04ZM412.11,291.66c0-59.25-12.52-103.19-81.73-103.19-33.26,0-55.58,16.63-64.69,33.93h-.06v-30.02h-66.41v220.7h66.41v-109.58c0-28.7,7.31-56.5,42.88-56.5s36.22,32.82,36.22,58.32v107.76h67.38v-121.42ZM500,441.41V58.59C500,26.28,473.72,0,441.41,0H58.59C26.28,0,0,26.28,0,58.59v382.81c0,32.31,26.28,58.59,58.59,58.59h382.81c32.31,0,58.59-26.28,58.59-58.59ZM441.41,39.06c10.77,0,19.53,8.76,19.53,19.53v382.81c0,10.77-8.76,19.53-19.53,19.53H58.59c-10.77,0-19.53-8.76-19.53-19.53V58.59c0-10.77,8.76-19.53,19.53-19.53h382.81Z"/>
</svg>