<svg width="33" height="33" viewBox="0 0 33 33" fill="none" xmlns="http://www.w3.org/2000/svg">
<path d="M16.0254 0.25C24.7379 0.25 31.8007 7.31288 31.8008 16.0254C31.8008 24.7379 24.7379 31.8008 16.0254 31.8008C7.31288 31.8007 0.25 24.7379 0.25 16.0254C0.250047 7.3129 7.3129 0.250047 16.0254 0.25Z" stroke="#001B51" stroke-width="0.5"/>
<path d="M23.973 20.3743C23.7819 21.0505 23.2219 21.5835 22.5119 21.7656C21.2146 22.1036 16.0253 22.1036 16.0253 22.1036C16.0253 22.1036 10.8362 22.1036 9.53892 21.7785C8.84252 21.5965 8.26893 21.0504 8.07782 20.3743C7.73645 19.1391 7.73645 16.5776 7.73645 16.5776C7.73645 16.5776 7.73645 14.0032 8.07782 12.781C8.26906 12.1049 8.82886 11.5717 9.53905 11.3896C10.8499 11.0516 16.0255 11.0516 16.0255 11.0516C16.0255 11.0516 21.2146 11.0516 22.5119 11.3767C23.2221 11.5587 23.7819 12.0919 23.9731 12.7679C24.3145 14.0032 24.3145 16.5646 24.3145 16.5646C24.3145 16.5646 24.3281 19.1391 23.973 20.3743Z" fill="#001B51"/>
<path d="M14.052 13.4199L18.7886 16.5776L14.052 19.7354V13.4199Z" fill="white"/>
</svg>
