<?xml version="1.0" encoding="UTF-8"?>
<svg id="Capa_1" xmlns="http://www.w3.org/2000/svg" version="1.1" viewBox="0 0 500 500">
  <!-- Generator: Adobe Illustrator 29.2.1, SVG Export Plug-In . SVG Version: 2.1.0 Build 116)  -->
  <defs>
    <style>
      .st0 {
        fill: #001b51;
      }
    </style>
  </defs>
  <path class="st0" d="M249.98,437.15h-.13c-15.09-.1-148.46-1.32-186.25-11.54-26.41-7.1-47.26-27.92-54.37-54.34C-.67,334.16-.04,262.69.03,256.98c-.06-5.68-.7-77.74,9.16-115.17.01-.03.02-.07.03-.11,7.04-26.11,28.35-47.58,54.31-54.7.06-.02.13-.03.2-.05,37.36-9.82,171-11.02,186.12-11.12h.27c15.13.1,148.86,1.32,186.3,11.55,26.34,7.08,47.17,27.88,54.31,54.26,10.26,37.45,9.31,109.67,9.2,115.76.07,6,.67,76.83-9.16,114.14,0,.04-.02.07-.03.11-7.12,26.41-27.97,47.24-54.41,54.34-.03.01-.07.02-.11.03-37.36,9.82-171,11.02-186.12,11.12h-.14ZM46.95,151.83c-8.68,33.04-7.86,104.18-7.85,104.89v.51c-.26,19.73.65,76.87,7.86,103.93,3.49,12.96,13.77,23.22,26.81,26.73,27.88,7.54,136.51,9.91,176.22,10.19,39.81-.28,148.6-2.59,176.27-9.83,13-3.52,23.24-13.75,26.76-26.72,7.21-27.46,8.12-84.32,7.85-103.92,0-.21,0-.41,0-.62.36-19.97-.35-77.77-7.82-105.05,0-.03-.02-.05-.02-.08-3.51-13.02-13.79-23.28-26.83-26.79-27.61-7.55-136.42-9.91-176.22-10.19-39.78.28-148.46,2.58-176.22,9.82-12.79,3.55-23.3,14.18-26.81,27.12ZM471.89,366.58h.01-.01ZM200.2,335.59v-158.2l136.72,79.1-136.72,79.1Z"/>
</svg>