<svg width="16" height="13" viewBox="0 0 16 13" fill="none" xmlns="http://www.w3.org/2000/svg">
<path d="M1.6 13C1.16 13 0.783467 12.841 0.4704 12.5231C0.157333 12.2051 0.000533333 11.8224 0 11.375V1.625C0 1.17812 0.1568 0.795708 0.4704 0.47775C0.784 0.159791 1.16053 0.000541667 1.6 0H14.4C14.84 0 15.2168 0.15925 15.5304 0.47775C15.844 0.79625 16.0005 1.17867 16 1.625V11.375C16 11.8219 15.8435 12.2046 15.5304 12.5231C15.2173 12.8416 14.8405 13.0005 14.4 13H1.6ZM8 7.3125L14.4 3.25V1.625L8 5.6875L1.6 1.625V3.25L8 7.3125Z" fill="#424242"/>
</svg>
