<svg width="90" height="101" viewBox="0 0 90 101" fill="none" xmlns="http://www.w3.org/2000/svg">
<path d="M84.6153 36.1277H82.0454L82.1804 26.5832C82.166 26.025 81.953 25.4908 81.5805 25.0783L59.5017 0.6767C59.323 0.473589 59.1057 0.308971 58.8625 0.192697C58.6194 0.0764232 58.3556 0.0108836 58.0868 0L11.8894 0C10.8536 0.0167966 9.86465 0.438851 9.13074 1.17732C8.39682 1.91578 7.9752 2.91306 7.95461 3.9592V36.1277H5.37976C3.95484 36.1277 2.57991 36.7236 1.57997 37.7841C0.559724 38.8619 -0.00666303 40.2976 5.91591e-05 41.7887V71.2302C5.91591e-05 74.3512 2.40992 76.8863 5.37976 76.8863H7.95461V97.0358C7.97399 98.0845 8.39644 99.0845 9.13262 99.8243C9.8688 100.564 10.861 100.986 11.8994 101H78.2857C80.3605 101 82.1854 99.2224 82.1854 97.0408V76.8913H84.6203C87.5901 76.8913 90 74.3512 90 71.2252V41.7837C90 40.2889 89.435 38.8446 88.4251 37.7841C87.9359 37.2624 87.3468 36.8465 86.6936 36.5617C86.0404 36.277 85.3367 36.1293 84.6253 36.1277M14.7492 6.9589H49.5273V30.0728C49.5253 30.5932 49.7224 31.0943 50.0772 31.4716C50.2494 31.6544 50.4564 31.8001 50.6859 31.9C50.9153 31.9998 51.1624 32.0516 51.4122 32.0524H75.2058V36.1277H14.7492V6.9589ZM14.7492 94.0411V76.8863H75.2058V94.0411H14.7492ZM56.4519 7.676L58.3768 9.8677L71.2761 24.2754L71.991 25.149H58.8068C57.8068 25.149 57.1768 24.9807 56.9169 24.644C56.6502 24.3141 56.4952 23.7872 56.4519 23.0634V7.676ZM9.9995 71.8716V41.5716H19.589C23.2221 41.5716 25.5886 41.7231 26.6886 42.0261C28.3885 42.4806 29.8101 43.4704 30.9533 44.9955C32.0966 46.5139 32.6682 48.48 32.6682 50.8939C32.6682 52.7523 32.3382 54.3178 31.6783 55.5904C31.0183 56.8529 30.18 57.8461 29.1634 58.5699C28.2371 59.2563 27.1826 59.7459 26.0636 60.0092C24.637 60.2987 22.5721 60.4435 19.8689 60.4435H15.9742V71.8716H9.9995ZM15.9742 46.6973V55.2975H19.244C21.6005 55.2975 23.1754 55.1393 23.9687 54.8228C24.7354 54.5273 25.3919 53.998 25.847 53.3084C26.3022 52.6188 26.5334 51.8031 26.5086 50.9747C26.5455 49.9769 26.206 49.0022 25.5586 48.2477C24.9352 47.5348 24.0877 47.0605 23.1588 46.9044C22.4488 46.7697 21.0155 46.7024 18.859 46.7024L15.9742 46.6973ZM36.173 41.5716H47.0924C49.5556 41.5716 51.4338 41.7652 52.7271 42.1524C54.4603 42.6742 55.9469 43.6034 57.1868 44.94C58.4234 46.2799 59.3651 47.9161 60.0117 49.8486C60.6617 51.7878 60.985 54.1747 60.9816 57.0094C60.9816 59.5042 60.6783 61.6538 60.0717 63.4583C59.3284 65.6635 58.2718 67.4478 56.9019 68.8113C55.8686 69.8482 54.4687 70.6562 52.7021 71.2353C51.3855 71.6595 49.6239 71.8716 47.4174 71.8716H36.173V41.5716ZM42.1477 46.6973V66.7661H46.6074C48.2773 66.7661 49.4823 66.6701 50.2222 66.4782C51.1922 66.2291 51.9955 65.8082 52.6321 65.2157C53.2754 64.6232 53.797 63.6485 54.197 62.2918C54.6003 60.935 54.802 59.085 54.802 56.7418C54.802 54.3986 54.602 52.6008 54.202 51.3484C53.8801 50.2453 53.2966 49.2382 52.5021 48.4144C51.7308 47.6864 50.773 47.1913 49.7373 46.9852C48.904 46.7933 47.2707 46.6973 44.8375 46.6973H42.1477ZM64.7114 71.8716V41.5716H84.9953V46.6973H70.6861V53.8684H83.0354V58.9941H70.6861V71.8716H64.7114Z" fill="#878787"/>
</svg>
