<?xml version="1.0" encoding="UTF-8"?>
<svg id="Capa_1" xmlns="http://www.w3.org/2000/svg" version="1.1" viewBox="0 0 500 500">
  <!-- Generator: Adobe Illustrator 29.2.1, SVG Export Plug-In . SVG Version: 2.1.0 Build 116)  -->
  <defs>
    <style>
      .st0 {
        fill: #424242;
      }
    </style>
  </defs>
  <path class="st0" d="M448,405.33v-35.11c0-17.45-10.62-33.14-26.82-39.62l-43.4-17.36c-20.6-8.24-44.08.68-54.01,20.53l-3.78,7.55s-53.33-10.67-96-53.33-53.33-96-53.33-96l7.55-3.78c19.85-9.92,28.78-33.4,20.53-54.01l-17.36-43.39c-6.48-16.2-22.17-26.82-39.62-26.82h-35.11c-23.56,0-42.67,19.1-42.67,42.67,0,188.51,152.82,341.33,341.33,341.33,23.56,0,42.67-19.1,42.67-42.67h0Z"/>
</svg>